<svg xmlns="http://www.w3.org/2000/svg" viewBox="0 0 24 24" fill="currentColor" class="size-6">
  <!-- Solid filled open book (two pages meet at center) -->
  <path d="M11.25 6.067A8.967 8.967 0 0 0 6 4.5c-.95 0-1.87.158-2.75.455a.75.75 0 0 0-.5.71v12.067a.75.75 0 0 0 1 .708A7.5 7.5 0 0 1 6 18c1.59 0 3.08.5 4.31 1.35a.75.75 0 0 0 .94-.06V6.06Zm1.5 13.282a.75.75 0 0 0 .94.06A7.5 7.5 0 0 1 18 18c.79 0 1.55.12 2.25.342a.75.75 0 0 0 1-.708V5.59a.75.75 0 0 0-.5-.71A8.95 8.95 0 0 0 18 4.5c-1.86 0-3.6.566-5.25 1.567v13.28Z" />
  <!-- 4-point sparkle, top-right -->
  <path d="M19 2.5a.5.5 0 0 1 .5.5v1h1a.5.5 0 0 1 0 1h-1v1a.5.5 0 0 1-1 0V5h-1a.5.5 0 0 1 0-1h1V3a.5.5 0 0 1 .5-.5Z" />
</svg>
