<svg xmlns="http://www.w3.org/2000/svg" viewBox="0 0 24 24" fill="currentColor" class="size-6">
  <path fill-rule="evenodd" d="M12 6.75a5.25 5.25 0 0 1 6.775-5.025.75.75 0 0 1 .313 1.248l-3.32 3.319c.063.475.276.934.641 1.299.365.365.824.578 1.3.64l3.318-3.319a.75.75 0 0 1 1.248.313 5.25 5.25 0 0 1-5.472 6.756c-1.018-.086-1.87.1-2.309.634L7.348 20.364a3.182 3.182 0 0 1-4.5-4.5l10.59-8.745c.534-.44.72-1.291.634-2.309A5.342 5.342 0 0 1 12 6.75ZM4.117 19.125a.75.75 0 0 1 .75-.75h.008a.75.75 0 0 1 .75.75v.008a.75.75 0 0 1-.75.75h-.008a.75.75 0 0 1-.75-.75v-.008Z" clip-rule="evenodd" />
  <path d="m10.076 8.64-2.201-2.2V4.874a.75.75 0 0 0-.364-.643l-3.75-2.25a.75.75 0 0 0-.916.113l-.75.75a.75.75 0 0 0-.113.916l2.25 3.75a.75.75 0 0 0 .643.364h1.564l2.062 2.062 1.575-1.297Zm5.673 9.099-2.073-2.073-1.295 1.578 2.05 2.051a.75.75 0 0 0 .916.113l3.75-2.25a.75.75 0 0 0 .363-.643V14.05a.75.75 0 0 0-.219-.531l-.749-.749a.75.75 0 0 0-1.061 0l-1.682 1.682Z" />
</svg>
